<svg width="260" height="256" viewBox="0 0 260 256" fill="none" xmlns="http://www.w3.org/2000/svg">
<path d="M66.5252 159.683L71.8426 169.882C72.0423 170.265 72.1002 170.59 72.0161 170.857C71.9321 171.125 71.6986 171.358 71.3155 171.558L68.4665 173.043C68.259 173.151 68.0709 173.219 67.9023 173.246C67.7254 173.257 67.5599 173.232 67.4059 173.17L63.4535 171.546L58.1145 174.33L59.2255 176.46C59.4252 176.843 59.483 177.168 59.399 177.436C59.315 177.703 59.0814 177.936 58.6983 178.136L55.8014 179.646C55.5939 179.754 55.4059 179.822 55.2373 179.849C55.0603 179.86 54.8949 179.835 54.7408 179.773L50.521 178.045C50.4156 177.998 50.3136 177.92 50.2151 177.809C50.0923 177.69 49.9893 177.551 49.9061 177.391L44.5887 167.192C44.389 166.809 44.3311 166.484 44.4152 166.217C44.4992 165.95 44.7327 165.716 45.1158 165.517L48.0127 164.006C48.2202 163.898 48.4124 163.838 48.5894 163.827C48.758 163.8 48.9193 163.818 49.0733 163.88L52.9528 165.48L58.3397 162.672L57.2537 160.589C57.054 160.206 56.9962 159.881 57.0802 159.614C57.1642 159.347 57.3978 159.113 57.7808 158.913L60.6299 157.428C60.8374 157.32 61.0296 157.26 61.2065 157.249C61.3751 157.222 61.5364 157.24 61.6905 157.301L65.8988 159.066C65.996 159.096 66.1059 159.171 66.2287 159.29C66.3431 159.392 66.442 159.524 66.5252 159.683ZM67.3834 168.279L62.0659 158.08C61.9078 157.777 61.7317 157.595 61.5374 157.533C61.3189 157.465 61.058 157.509 60.7547 157.668L57.9057 159.153C57.6024 159.311 57.4244 159.495 57.3716 159.705C57.2945 159.908 57.335 160.161 57.4931 160.464L58.7039 162.786L50.6596 166.981L49.4488 164.658C49.2907 164.355 49.1145 164.173 48.9202 164.112C48.7017 164.043 48.4408 164.088 48.1375 164.246L45.2406 165.756C44.9374 165.914 44.7593 166.098 44.7065 166.309C44.6295 166.511 44.67 166.764 44.8281 167.067L50.1455 177.266C50.3036 177.57 50.4919 177.756 50.7105 177.824C50.9048 177.885 51.1535 177.837 51.4568 177.679L54.3537 176.169C54.6569 176.01 54.8471 175.83 54.9242 175.627C54.977 175.417 54.9243 175.161 54.7662 174.857L53.5305 172.487L61.5748 168.293L62.8106 170.663C62.9687 170.966 63.157 171.152 63.3755 171.221C63.5698 171.282 63.8186 171.234 64.1218 171.076L66.9708 169.59C67.2741 169.432 67.4643 169.252 67.5413 169.049C67.5941 168.839 67.5415 168.582 67.3834 168.279ZM60.5853 160.496L64.5546 168.11L64.3152 168.235L62.3804 164.524L49.9309 171.014L51.8656 174.725L51.6262 174.85L47.6569 167.237L47.8963 167.112L49.8061 170.775L62.2556 164.284L60.3458 160.621L60.5853 160.496Z" fill="black"/>
<path d="M53.3526 150.181C53.4308 150.606 53.3992 150.932 53.258 151.159C53.0991 151.39 52.7984 151.546 52.3558 151.627L51.2936 151.823C51.0635 151.865 50.8639 151.874 50.6948 151.85C50.5224 151.809 50.3718 151.736 50.2427 151.631L49.2074 150.779L49.3002 151.283C49.3783 151.708 49.338 152.036 49.1791 152.266C49.0202 152.497 48.7283 152.651 48.3034 152.73L44.3733 153.452C44.1432 153.495 43.9436 153.504 43.7745 153.48C43.6021 153.439 43.4515 153.366 43.3224 153.261L39.7978 150.368C39.7107 150.293 39.6365 150.188 39.575 150.053C39.4926 149.903 39.4351 149.74 39.4025 149.563L38.4157 144.199C38.3376 143.774 38.378 143.446 38.5369 143.216C38.6958 142.985 38.9877 142.831 39.4125 142.752L44.4048 141.834C45.1837 141.691 45.8792 141.691 46.4913 141.835C47.0824 141.964 47.5925 142.199 48.0214 142.541L51.5509 145.461C51.896 145.745 52.1939 146.121 52.4444 146.587C52.6916 147.036 52.869 147.552 52.9765 148.136L53.3526 150.181ZM49.1863 145.292C48.9681 144.106 48.4664 143.219 47.6811 142.631C46.8749 142.029 45.799 141.852 44.4536 142.1L39.4614 143.018C39.125 143.08 38.9007 143.203 38.7884 143.389C38.6551 143.56 38.6194 143.813 38.6813 144.15L39.6681 149.514C39.7299 149.85 39.8552 150.083 40.0438 150.213C40.2115 150.329 40.4635 150.356 40.7999 150.294L44.7299 149.571C45.0663 149.509 45.3011 149.393 45.4344 149.222C45.5467 149.036 45.5719 148.775 45.51 148.439L44.9776 145.545L45.3759 145.471C45.606 145.429 45.8033 145.457 45.9677 145.555C46.1144 145.656 46.209 145.821 46.2513 146.052L46.5884 147.884C46.6502 148.22 46.7755 148.453 46.9641 148.583C47.1318 148.699 47.3838 148.726 47.7202 148.664L48.7824 148.469C49.1187 148.407 49.3535 148.29 49.4868 148.119C49.5991 147.934 49.6243 147.673 49.5625 147.337L49.1863 145.292ZM41.6356 144.54L44.7956 143.958C45.6099 143.809 46.2597 143.909 46.7451 144.259C47.2127 144.612 47.5116 145.143 47.6419 145.851L47.8666 147.072L47.6011 147.121L47.3764 145.9C47.2591 145.262 46.9893 144.79 46.5668 144.484C46.1267 144.18 45.5525 144.094 44.8444 144.224L41.95 144.756L42.5557 148.049L42.2902 148.098L41.6356 144.54Z" fill="black"/>
<path d="M60.5093 117.384C60.8967 118.001 61.1472 118.753 61.2609 119.641C61.3925 120.531 61.3783 121.556 61.2184 122.715L59.9749 131.728C59.9158 132.156 59.7747 132.455 59.5515 132.624C59.3283 132.793 59.0027 132.848 58.5748 132.789L41.243 130.398C41.0112 130.366 40.8187 130.312 40.6656 130.236C40.515 130.143 40.3948 130.026 40.305 129.887L37.8656 126.034C37.8066 125.935 37.7691 125.812 37.7531 125.665C37.7218 125.497 37.7184 125.324 37.743 125.145L38.9865 116.132C39.3088 113.796 40.0187 112.14 41.1162 111.165C42.2163 110.172 43.7292 109.808 45.6549 110.074L53.9999 111.225C54.9628 111.358 55.7901 111.618 56.4818 112.004C57.1557 112.388 57.6952 112.889 58.1004 113.508L60.5093 117.384ZM58.5116 118.825C58.8191 116.596 58.6008 114.886 57.8569 113.693C57.1154 112.482 55.8174 111.749 53.963 111.493L45.618 110.342C43.7636 110.086 42.3156 110.44 41.274 111.405C40.2348 112.352 39.5615 113.94 39.254 116.169L38.0104 125.182C37.9637 125.521 38.0095 125.782 38.1478 125.964C38.2708 126.127 38.5017 126.231 38.8405 126.278L56.1723 128.669C56.5111 128.716 56.7706 128.679 56.9507 128.558C57.1155 128.418 57.2213 128.178 57.268 127.839L58.5116 118.825ZM55.1302 125.554L40.687 123.562L41.58 117.089C41.7055 116.18 41.9044 115.462 42.1768 114.936C42.4516 114.393 42.7794 113.993 43.16 113.737C43.5228 113.478 43.9433 113.327 44.4217 113.284C44.8823 113.238 45.3711 113.251 45.8882 113.323L52.976 114.3C53.4931 114.372 53.9672 114.492 54.3982 114.66C54.8317 114.811 55.188 115.06 55.4672 115.407C55.7463 115.755 55.9446 116.227 56.062 116.825C56.1616 117.42 56.1487 118.172 56.0232 119.082L55.1302 125.554ZM41.8475 117.126L40.9914 123.331L54.8996 125.25L55.7557 119.045C55.8738 118.189 55.8883 117.491 55.7991 116.952C55.6946 116.393 55.5194 115.95 55.2735 115.626C55.0097 115.299 54.6789 115.062 54.2811 114.917C53.8679 114.75 53.4206 114.634 52.9391 114.568L45.8513 113.59C45.3698 113.524 44.9078 113.514 44.4651 113.562C44.0224 113.61 43.6298 113.756 43.2873 113.999C42.9448 114.243 42.6475 114.62 42.3954 115.13C42.1457 115.623 41.9631 116.288 41.8475 117.126ZM43.8238 120.778L44.263 117.596C44.322 117.168 44.472 116.87 44.7131 116.704C44.9387 116.517 45.2744 116.454 45.7202 116.516L52.2197 117.412C52.6654 117.474 52.9806 117.626 53.165 117.87C53.3519 118.095 53.4159 118.422 53.3568 118.85L52.9177 122.033L43.8238 120.778ZM48.1227 120.636C47.8909 120.604 47.6898 120.612 47.5195 120.661C47.3492 120.711 47.2173 120.81 47.1238 120.961L52.6871 121.729L52.7499 121.274L48.1227 120.636Z" fill="black"/>
<path d="M79.676 84.8404L70.8174 95.3473C70.539 95.6776 70.2602 95.8546 69.9812 95.8784C69.7022 95.9021 69.3976 95.7748 69.0673 95.4963L55.6911 84.2186C55.5122 84.0678 55.3782 83.9195 55.2891 83.7738C55.2117 83.6144 55.1723 83.4516 55.1709 83.2857L55.166 78.7258C55.169 78.6106 55.2031 78.4863 55.2684 78.353C55.3316 78.1944 55.4211 78.0462 55.5372 77.9086L58.2348 74.7091C58.5132 74.3788 58.7919 74.2018 59.071 74.178C59.35 74.1543 59.6546 74.2816 59.9849 74.5601L68.3863 81.6434L68.3798 81.5674L68.3749 77.0075C68.3779 76.8923 68.412 76.768 68.4773 76.6347C68.5404 76.476 68.63 76.3279 68.7461 76.1903L71.2696 73.1971C71.5481 72.8669 71.8268 72.6899 72.1058 72.6661C72.3848 72.6424 72.6895 72.7697 73.0197 73.0482L79.5221 78.5304C79.701 78.6812 79.8292 78.8364 79.9066 78.9958C79.9956 79.1415 80.0408 79.2974 80.0422 79.4633L80.0091 84.0264C80.0177 84.1279 79.9905 84.2579 79.9273 84.4166C79.8758 84.5615 79.792 84.7028 79.676 84.8404ZM79.4646 80.1065C79.6851 79.845 79.7867 79.6128 79.7694 79.4099C79.75 79.1816 79.6095 78.9572 79.348 78.7368L72.8457 73.2546C72.5842 73.0341 72.3462 72.9394 72.1317 72.9705C71.915 72.9761 71.6965 73.1097 71.476 73.3712L68.9525 76.3643C68.732 76.6258 68.6315 76.8707 68.651 77.0989C68.6682 77.3019 68.8076 77.5135 69.0691 77.734L72.4131 80.5534L70.0288 83.3814L59.8108 74.7665C59.5494 74.5461 59.3114 74.4514 59.0969 74.4824C58.8802 74.4881 58.6616 74.6216 58.4412 74.8831L55.7436 78.0827C55.5231 78.3441 55.4226 78.589 55.4421 78.8173C55.4593 79.0202 55.5987 79.2319 55.8602 79.4523L69.2364 90.73C69.4979 90.9505 69.737 91.0578 69.9536 91.0522C70.1682 91.0211 70.3856 90.8749 70.6061 90.6134L79.4646 80.1065ZM70.0187 87.5402L58.8719 78.1421L59.0459 77.9357L69.9864 87.1597L76.0429 79.9762L71.9763 76.5476L72.1504 76.3412L76.4234 79.9438L70.0187 87.5402Z" fill="black"/>
<path d="M99.4299 69.5715C99.1335 70.3465 98.5556 71.131 97.6961 71.9248C96.8452 72.7345 95.6365 73.5641 94.0701 74.4137C92.5195 75.2548 91.1557 75.7795 89.9787 75.9879C88.826 76.2035 87.819 76.1968 86.9576 75.9678C86.1121 75.7302 85.3897 75.3234 84.7906 74.7474C84.2073 74.1627 83.714 73.4986 83.3106 72.755L79.3071 65.3738C78.9123 64.646 78.6504 63.9177 78.5214 63.1891C78.3838 62.4446 78.4639 61.705 78.7615 60.9702L80.4566 56.7334C80.7529 55.9584 81.3229 55.1783 82.1666 54.393C83.0175 53.5834 84.2341 52.7494 85.8164 51.8912C87.367 51.0502 88.7014 50.4902 89.8197 50.2113C90.9538 49.9238 91.9222 49.8593 92.7249 50.0177C93.5348 50.1518 94.2142 50.4795 94.7632 51.0008C95.3036 51.5064 95.7755 52.1309 96.1788 52.8746L100.569 60.9678C100.963 61.6956 101.225 62.4238 101.354 63.1525C101.483 63.8811 101.399 64.6128 101.101 65.3477L99.4299 69.5715ZM100.331 61.0965L95.9415 53.0033C95.5467 52.2755 95.0798 51.6789 94.5408 51.2137C94.0089 50.724 93.3503 50.4157 92.5648 50.2889C91.7951 50.1535 90.8633 50.2288 89.7694 50.515C88.6914 50.7926 87.4166 51.3304 85.9451 52.1286C84.4736 52.9267 83.3196 53.7062 82.4832 54.467C81.6468 55.2279 81.0675 55.9721 80.7454 56.6996C80.4392 57.4186 80.3384 58.1388 80.443 58.8602C80.5548 59.5572 80.8081 60.2696 81.2029 60.9975L85.5926 69.0906C85.9874 69.8185 86.4507 70.4272 86.9825 70.9169C87.5215 71.3822 88.1759 71.6825 88.9456 71.818C89.7225 71.929 90.6579 71.8414 91.7518 71.5552C92.8457 71.2691 94.1284 70.7269 95.5999 69.9288C97.0713 69.1307 98.2174 68.3555 99.038 67.6032C99.8745 66.8424 100.45 66.1104 100.765 65.4072C101.087 64.6796 101.192 63.9673 101.08 63.2703C100.976 62.5489 100.726 61.8243 100.331 61.0965ZM97.4481 61.9538C97.9631 62.9031 98.0434 63.8629 97.6892 64.8332C97.3263 65.7877 96.2193 66.7669 94.3681 67.771C92.5169 68.7751 91.1002 69.1647 90.1181 68.9397C89.1275 68.6989 88.3747 68.1038 87.8598 67.1545L84.0622 60.1531C83.5473 59.2037 83.4633 58.2561 83.8103 57.3102C84.1488 56.3485 85.2436 55.3656 87.0948 54.3615C88.946 53.3574 90.3749 52.9715 91.3814 53.2037C92.3793 53.4201 93.1357 54.003 93.6506 54.9524L97.4481 61.9538ZM88.0971 67.0258C88.5777 67.9118 89.2846 68.4601 90.2179 68.6706C91.1426 68.8653 92.4831 68.4863 94.2393 67.5337C95.9956 66.5811 97.0522 65.6599 97.4092 64.7701C97.7575 63.8644 97.6914 62.9686 97.2108 62.0825L93.4133 55.0811C92.9327 54.195 92.2221 53.659 91.2816 53.4729C90.3325 53.2709 88.9798 53.6463 87.2235 54.5989C85.4673 55.5515 84.4228 56.4763 84.0903 57.3734C83.7492 58.2546 83.819 59.1383 84.2995 60.0243L88.0971 67.0258ZM90.5167 65.3141L87.0539 58.9297C86.8908 58.6291 86.8722 58.3116 86.9979 57.9771C87.1151 57.6269 87.6009 57.2201 88.4553 56.7566C89.3097 56.2932 89.9157 56.1079 90.2732 56.2007C90.6221 56.2776 90.8781 56.4664 91.0411 56.767L94.504 63.1514C94.6756 63.4678 94.7028 63.8012 94.5856 64.1514C94.4599 64.4858 93.9698 64.8848 93.1154 65.3482C92.261 65.8116 91.6593 66.0049 91.3104 65.9279C90.9529 65.8351 90.6884 65.6305 90.5167 65.3141ZM90.754 65.1853C90.8399 65.3435 90.9488 65.4688 91.0807 65.561C91.2041 65.6375 91.3742 65.668 91.5912 65.6527L89.1453 61.1434C89.0595 60.9851 88.9549 60.8678 88.8315 60.7914C88.6996 60.6991 88.5294 60.6686 88.321 60.6997L90.754 65.1853Z" fill="black"/>
<path d="M114.142 66.1588C113.731 66.207 113.391 66.1654 113.122 66.0339C112.855 65.9203 112.618 65.6762 112.411 65.3018L109.011 59.0405C108.802 58.6482 108.618 58.3164 108.459 58.0451C108.316 57.7537 108.193 57.4782 108.09 57.2184C107.985 56.9408 107.897 56.6521 107.826 56.3524C107.77 56.0327 107.717 55.6583 107.667 55.2293L106.835 48.1499C106.808 47.9175 106.812 47.7177 106.847 47.5505C106.899 47.3812 106.982 47.2356 107.094 47.1137L110.21 43.7846C110.291 43.7026 110.401 43.6353 110.54 43.5828C110.695 43.5102 110.861 43.4635 111.04 43.4425L115.304 42.9419C115.733 42.8915 116.067 42.961 116.307 43.1504C116.563 43.3197 116.714 43.61 116.763 44.0212L117.632 51.4223C117.653 51.6011 117.691 51.7688 117.745 51.9255C117.8 52.0822 117.864 52.2468 117.939 52.4193L118.042 52.5976L117.374 46.9126C117.347 46.6802 117.351 46.4804 117.385 46.3132C117.438 46.1439 117.52 45.9983 117.633 45.8764L120.749 42.5473C120.83 42.4653 120.94 42.398 121.079 42.3455C121.233 42.2729 121.4 42.2262 121.579 42.2052L125.789 41.7109C126.236 41.6584 126.56 41.72 126.762 41.8957C126.982 42.0693 127.117 42.3706 127.167 42.7996L127.998 49.879C128.049 50.308 128.075 50.6856 128.077 51.0116C128.095 51.3176 128.085 51.6178 128.047 51.9122C128.007 52.1888 127.942 52.4864 127.853 52.805C127.779 53.1036 127.686 53.4679 127.573 53.898L125.717 60.7764C125.682 60.9436 125.627 61.095 125.552 61.2307C125.478 61.3663 125.4 61.4751 125.319 61.5571L122.197 64.8325C122.068 64.9745 121.909 65.0838 121.719 65.1605C121.548 65.253 121.347 65.3129 121.114 65.3402L114.142 66.1588ZM124.199 61.743C124.539 61.7031 124.808 61.608 125.008 61.4577C125.226 61.3052 125.377 61.0518 125.463 60.6975L127.319 53.8191C127.434 53.4069 127.528 53.0515 127.602 52.7528C127.673 52.4363 127.729 52.1398 127.769 51.8633C127.809 51.5867 127.821 51.3044 127.806 51.0162C127.806 50.7081 127.781 50.3395 127.73 49.9105L126.899 42.8311C126.859 42.4914 126.75 42.2595 126.573 42.1354C126.411 41.9913 126.16 41.9392 125.82 41.9791L121.61 42.4734C121.271 42.5132 121.03 42.6231 120.888 42.8029C120.762 42.9627 120.718 43.2124 120.758 43.5521L121.624 50.9264C121.645 51.1052 121.648 51.2861 121.633 51.469C121.619 51.652 121.587 51.846 121.539 52.0511L120.722 55.9801C120.69 56.1651 120.642 56.2976 120.579 56.3775C120.513 56.4395 120.409 56.479 120.266 56.4957L119.971 56.5304C119.828 56.5472 119.718 56.5329 119.64 56.4877C119.56 56.4246 119.483 56.3068 119.408 56.1343L117.707 52.5281C117.613 52.3398 117.537 52.1584 117.48 51.9838C117.423 51.8093 117.385 51.6326 117.364 51.4538L116.495 44.0527C116.455 43.713 116.337 43.4821 116.141 43.3601C115.944 43.2202 115.675 43.1702 115.335 43.2101L111.072 43.7107C110.732 43.7505 110.491 43.8604 110.349 44.0402C110.223 44.2 110.18 44.4497 110.22 44.7894L111.051 51.8687C111.101 52.2978 111.153 52.6632 111.207 52.965C111.276 53.2469 111.362 53.5177 111.465 53.7774C111.568 54.0372 111.691 54.3127 111.834 54.6041C111.975 54.8775 112.149 55.2014 112.356 55.5758L115.755 61.8372C115.92 62.1622 116.117 62.3746 116.347 62.4746C116.594 62.5724 116.887 62.6014 117.227 62.5615L124.199 61.743ZM113.42 45.8817L113.688 45.8502L114.368 51.6424C114.423 52.1072 114.511 52.5499 114.633 52.9706C114.753 53.3734 114.905 53.7451 115.09 54.0859L117.364 58.1686C117.597 58.6125 117.84 58.9827 118.092 59.2793C118.36 59.5559 118.744 59.6648 119.245 59.6061L121.605 59.329C122.105 59.2702 122.445 59.0763 122.624 58.7472C122.819 58.3981 122.978 57.9807 123.102 57.4949L124.368 52.9966C124.469 52.6222 124.531 52.2253 124.555 51.8057C124.576 51.3683 124.559 50.9171 124.504 50.4523L123.824 44.6601L124.093 44.6286L124.773 50.4208C124.831 50.9214 124.85 51.3904 124.829 51.8279C124.824 52.2453 124.764 52.6602 124.649 53.0723L123.383 57.5707C123.229 58.1143 123.038 58.5717 122.81 58.9428C122.582 59.314 122.19 59.5321 121.636 59.5972L119.276 59.8742C118.722 59.9393 118.291 59.8177 117.983 59.5095C117.675 59.2013 117.383 58.8006 117.108 58.3074L114.834 54.2246C114.627 53.8502 114.464 53.4616 114.344 53.0589C114.24 52.6361 114.159 52.1744 114.1 51.6739L113.42 45.8817Z" fill="black"/>
<path d="M148.295 68.2378L136.156 65.1423C135.737 65.0356 135.457 64.8618 135.314 64.6211C135.171 64.3803 135.153 64.0506 135.259 63.632L139.582 46.6784C139.64 46.4517 139.715 46.2665 139.808 46.1229C139.917 45.9837 140.047 45.8773 140.195 45.8038L144.298 43.8127C144.403 43.7651 144.529 43.7417 144.678 43.7424C144.848 43.7301 145.02 43.7462 145.195 43.7907L157.334 46.8861C157.753 46.9929 158.034 47.1666 158.177 47.4074C158.32 47.6482 158.338 47.9779 158.231 48.3965L157.45 51.4576C157.393 51.6843 157.309 51.8673 157.199 52.0065C157.107 52.1501 156.986 52.2587 156.837 52.3322L154.114 53.616C154.266 53.7477 154.355 53.9096 154.38 54.1019C154.423 54.2985 154.408 54.5364 154.337 54.8154L153.623 57.6149C153.566 57.8416 153.482 58.0246 153.372 58.1638C153.28 58.3074 153.159 58.416 153.01 58.4895L150.181 59.858L153.792 60.7786C154.211 60.8853 154.491 61.0591 154.634 61.2999C154.777 61.5407 154.795 61.8704 154.689 62.289L153.908 65.35C153.85 65.5768 153.766 65.7597 153.657 65.8989C153.564 66.0426 153.444 66.1511 153.295 66.2247L149.173 68.183C149.086 68.235 148.957 68.2671 148.786 68.2794C148.634 68.2961 148.47 68.2823 148.295 68.2378ZM152.464 65.985C152.796 66.0695 153.049 66.0598 153.224 65.9558C153.421 65.8389 153.562 65.6147 153.646 65.2833L154.427 62.2223C154.511 61.8909 154.493 61.6354 154.372 61.4558C154.272 61.2633 154.057 61.1247 153.725 61.0402L146.504 59.199L147.078 56.949L152.18 58.2499C152.511 58.3344 152.764 58.3246 152.94 58.2207C153.137 58.1037 153.277 57.8796 153.362 57.5482L154.076 54.7487C154.16 54.4173 154.142 54.1619 154.02 53.9823C153.921 53.7897 153.705 53.6512 153.374 53.5667L148.272 52.2658L148.786 50.2513L156.007 52.0925C156.338 52.177 156.591 52.1673 156.767 52.0634C156.964 51.9464 157.104 51.7222 157.189 51.3908L157.969 48.3298C158.054 47.9984 158.035 47.7429 157.914 47.5634C157.815 47.3708 157.599 47.2323 157.268 47.1478L145.128 44.0523C144.797 43.9678 144.533 43.984 144.336 44.101C144.16 44.2049 144.031 44.4226 143.946 44.754L139.623 61.7075C139.539 62.0389 139.546 62.3009 139.646 62.4935C139.767 62.673 139.993 62.805 140.325 62.8896L152.464 65.985ZM151.719 63.0085L151.652 63.2701L142.835 61.0219L146.438 46.894L155.254 49.1422L155.188 49.4038L146.633 47.2223L144.958 53.7892L151.394 55.4303L151.327 55.6919L144.891 54.0508L143.163 60.827L151.719 63.0085Z" fill="black"/>
<path d="M175.162 85.1001L172.091 81.9848C171.788 81.6771 171.638 81.3832 171.64 81.1032C171.642 80.8232 171.797 80.5316 172.104 80.2284L181.354 71.1124L178.758 68.4778C178.455 68.1701 178.304 67.8763 178.306 67.5963C178.308 67.3162 178.463 67.0246 178.771 66.7214L181.097 64.4282C181.264 64.2639 181.424 64.1442 181.577 64.0689C181.743 64.0065 181.909 63.9822 182.074 63.9962L186.615 64.4111C186.73 64.4247 186.85 64.4701 186.977 64.5474C187.129 64.6249 187.268 64.7278 187.395 64.856L197.402 75.0097C197.705 75.3174 197.855 75.6113 197.853 75.8913C197.851 76.1713 197.696 76.4629 197.389 76.7661L195.062 79.0593C194.895 79.2236 194.729 79.3369 194.563 79.3994C194.41 79.4746 194.25 79.5053 194.085 79.4913L189.544 79.0382C189.442 79.0374 189.315 78.9983 189.163 78.9209C189.024 78.8562 188.891 78.7598 188.764 78.6316L188.613 78.4777L181.459 85.5279C181.292 85.6922 181.126 85.8055 180.96 85.8679C180.807 85.9432 180.648 85.9738 180.482 85.9599L175.942 85.5068C175.84 85.506 175.713 85.4669 175.561 85.3894C175.421 85.3248 175.288 85.2283 175.162 85.1001ZM179.895 85.3256C180.135 85.5692 180.357 85.6917 180.561 85.6932C180.79 85.6949 181.026 85.5757 181.27 85.3356L190.712 76.0301L193.498 78.857C193.738 79.1006 193.96 79.2231 194.163 79.2246C194.392 79.2263 194.629 79.1071 194.872 78.867L197.199 76.5738C197.443 76.3338 197.559 76.1055 197.548 75.889C197.562 75.6728 197.449 75.4428 197.209 75.1992L187.203 65.0455C186.962 64.8019 186.728 64.6793 186.499 64.6776C186.295 64.6761 186.072 64.7954 185.828 65.0355L183.501 67.3287C183.257 67.5687 183.129 67.7969 183.114 68.0132C183.125 68.2296 183.251 68.4597 183.491 68.7032L186.277 71.5301L176.835 80.8356C176.591 81.0757 176.462 81.3039 176.448 81.5201C176.459 81.7366 176.585 81.9666 176.825 82.2102L179.895 85.3256ZM179.996 81.9661L190.188 71.9214L186.303 67.9791L186.495 67.7896L194.455 75.8665L194.263 76.056L190.378 72.1137L180.185 82.1584L179.996 81.9661Z" fill="black"/>
<path d="M191.929 109.324C191.182 108.963 190.45 108.32 189.732 107.396C188.998 106.479 188.275 105.204 187.562 103.571C186.856 101.954 186.45 100.55 186.342 99.3598C186.226 98.193 186.318 97.1902 186.62 96.3515C186.929 95.5292 187.396 94.8442 188.021 94.2964C188.653 93.7652 189.357 93.3303 190.132 92.9918L197.828 89.6327C198.587 89.3014 199.335 89.1026 200.072 89.0363C200.825 88.9627 201.556 89.1056 202.262 89.4648L206.339 91.5152C207.086 91.8766 207.815 92.5111 208.525 93.4186C209.259 94.3355 209.986 95.6188 210.706 97.2685C211.412 98.8852 211.856 100.263 212.039 101.401C212.228 102.555 212.21 103.525 211.983 104.312C211.781 105.107 211.396 105.756 210.83 106.259C210.28 106.754 209.618 107.171 208.842 107.509L200.404 111.193C199.645 111.524 198.897 111.723 198.16 111.789C197.423 111.855 196.702 111.709 195.995 111.35L191.929 109.324ZM200.296 110.945L208.734 107.262C209.493 106.931 210.127 106.516 210.637 106.019C211.17 105.531 211.534 104.901 211.727 104.129C211.928 103.374 211.932 102.439 211.74 101.325C211.556 100.227 211.128 98.9108 210.459 97.3765C209.789 95.8423 209.111 94.6261 208.424 93.7278C207.738 92.8295 207.045 92.1888 206.348 91.8059C205.658 91.4394 204.949 91.2775 204.221 91.3202C203.517 91.3721 202.786 91.5637 202.027 91.895L193.589 95.5782C192.83 95.9094 192.184 96.3191 191.65 96.8072C191.141 97.3045 190.786 97.9309 190.585 98.6862C190.408 99.4508 190.416 100.39 190.608 101.505C190.799 102.619 191.23 103.943 191.9 105.477C192.569 107.012 193.244 108.22 193.924 109.101C194.61 110 195.29 110.636 195.964 111.009C196.662 111.392 197.362 111.558 198.066 111.506C198.794 111.463 199.537 111.276 200.296 110.945ZM199.688 107.999C198.698 108.431 197.735 108.43 196.799 107.994C195.878 107.551 194.997 106.364 194.155 104.434C193.312 102.504 193.045 101.059 193.353 100.1C193.677 99.1336 194.335 98.4343 195.324 98.0022L202.624 94.8159C203.614 94.3838 204.565 94.381 205.478 94.8075C206.407 95.2267 207.293 96.4014 208.136 98.3316C208.978 100.262 209.241 101.718 208.924 102.701C208.623 103.677 207.978 104.381 206.988 104.813L199.688 107.999ZM195.432 98.2497C194.509 98.6529 193.902 99.3105 193.613 100.222C193.34 101.127 193.603 102.495 194.402 104.326C195.201 106.157 196.029 107.289 196.885 107.72C197.758 108.145 198.656 108.155 199.58 107.752L206.88 104.566C207.804 104.162 208.398 103.5 208.664 102.579C208.946 101.651 208.688 100.271 207.888 98.4396C207.089 96.6084 206.257 95.4889 205.391 95.0811C204.542 94.666 203.656 94.6601 202.732 95.0633L195.432 98.2497ZM196.931 100.807L203.588 97.901C203.901 97.7642 204.219 97.7727 204.542 97.9266C204.881 98.0732 205.245 98.5919 205.633 99.4828C206.022 100.374 206.155 100.993 206.032 101.341C205.926 101.682 205.716 101.921 205.402 102.058L198.746 104.964C198.416 105.108 198.082 105.106 197.743 104.96C197.42 104.806 197.064 104.284 196.676 103.393C196.287 102.502 196.146 101.886 196.252 101.545C196.375 101.197 196.601 100.951 196.931 100.807ZM197.039 101.054C196.874 101.126 196.74 101.224 196.637 101.347C196.55 101.464 196.506 101.631 196.502 101.848L201.204 99.796C201.369 99.7239 201.495 99.6297 201.581 99.5134C201.684 99.3898 201.729 99.2228 201.716 99.0126L197.039 101.054Z" fill="black"/>
<path d="M193.555 141.73L194.187 137.402C194.25 136.975 194.393 136.677 194.618 136.51C194.842 136.343 195.168 136.29 195.596 136.353L208.447 138.23L208.981 134.57C209.044 134.142 209.187 133.845 209.412 133.678C209.636 133.51 209.962 133.458 210.39 133.52L213.622 133.992C213.854 134.026 214.046 134.082 214.198 134.158C214.348 134.253 214.468 134.371 214.556 134.511L216.965 138.383C217.023 138.482 217.06 138.606 217.074 138.753C217.104 138.921 217.106 139.094 217.08 139.273L215.02 153.379C214.958 153.806 214.814 154.104 214.59 154.271C214.365 154.438 214.039 154.491 213.612 154.428L210.379 153.956C210.147 153.922 209.957 153.858 209.807 153.764C209.654 153.687 209.534 153.578 209.445 153.438L207.067 149.543C207.006 149.462 206.961 149.337 206.931 149.169C206.898 149.018 206.895 148.854 206.921 148.676L206.952 148.462L197.013 147.011C196.782 146.977 196.591 146.913 196.441 146.818C196.289 146.741 196.168 146.633 196.08 146.492L193.701 142.598C193.641 142.516 193.595 142.391 193.565 142.223C193.533 142.073 193.529 141.909 193.555 141.73ZM196.231 145.641C196.182 145.98 196.218 146.23 196.34 146.394C196.476 146.577 196.714 146.694 197.052 146.743L210.17 148.659L209.597 152.587C209.547 152.925 209.583 153.176 209.705 153.339C209.842 153.523 210.08 153.64 210.418 153.689L213.651 154.161C213.989 154.211 214.241 154.166 214.407 154.026C214.588 153.907 214.704 153.678 214.753 153.34L216.813 139.234C216.863 138.895 216.819 138.634 216.682 138.45C216.56 138.287 216.33 138.181 215.992 138.131L212.759 137.659C212.421 137.61 212.161 137.645 211.98 137.764C211.814 137.903 211.706 138.142 211.657 138.48L211.083 142.408L197.966 140.492C197.627 140.442 197.367 140.477 197.186 140.596C197.02 140.736 196.913 140.975 196.863 141.313L196.231 145.641ZM198.971 143.695L213.131 145.763L213.931 140.286L214.198 140.325L212.559 151.546L212.292 151.507L213.092 146.03L198.932 143.962L198.971 143.695Z" fill="black"/>
<path d="M197.521 166.892L196.792 166.482L191.637 175.664L192.366 176.074C192.79 176.312 193.205 176.493 193.61 176.617C194.006 176.757 194.392 176.86 194.767 176.926L199.517 177.456C200.022 177.513 200.461 177.522 200.833 177.483C201.222 177.453 201.539 177.219 201.786 176.779L203.081 174.472C203.346 174.001 203.389 173.592 203.213 173.245C203.052 172.907 202.819 172.55 202.515 172.172L199.499 168.498C199.247 168.212 198.963 167.928 198.646 167.647C198.32 167.381 197.945 167.13 197.521 166.892ZM200.28 173.395C200.386 173.537 200.453 173.657 200.48 173.755C200.499 173.869 200.482 173.973 200.429 174.067L200.099 174.655C200.046 174.75 199.97 174.81 199.872 174.838C199.765 174.881 199.624 174.895 199.447 174.878L195.247 173.976L197.323 170.279L200.28 173.395ZM187.352 173.258L191.401 175.532L196.556 166.35L192.507 164.076L192.639 163.841L197.654 166.656C198.093 166.903 198.476 167.159 198.801 167.425C199.134 167.715 199.438 168.019 199.713 168.339L202.728 172.013C203.07 172.433 203.329 172.836 203.504 173.223C203.679 173.61 203.616 174.071 203.317 174.604L202.021 176.912C201.731 177.43 201.379 177.707 200.966 177.743C200.544 177.796 200.053 177.788 199.492 177.721L194.743 177.191C194.327 177.123 193.913 177.014 193.501 176.866C193.096 176.741 192.674 176.556 192.234 176.309L187.219 173.494L187.352 173.258ZM189.874 165.788L193.17 167.638L190.83 171.805L187.534 169.955C187.236 169.787 186.977 169.735 186.756 169.797C186.542 169.883 186.347 170.083 186.171 170.397L184.175 173.952C184.008 174.25 183.952 174.498 184.007 174.694C184.069 174.914 184.249 175.108 184.547 175.276L190.762 178.765C191.233 179.029 191.819 179.255 192.519 179.442C193.211 179.644 194.053 179.817 195.045 179.962L201.539 180.914C201.859 180.97 202.139 180.931 202.379 180.797C202.61 180.679 202.81 180.471 202.977 180.173L206.533 173.84C206.709 173.526 206.791 173.232 206.78 172.957C206.761 172.698 206.644 172.447 206.43 172.203L202.235 167.154C201.596 166.382 201.014 165.746 200.49 165.245C199.957 164.76 199.455 164.386 198.984 164.121L192.769 160.632C192.47 160.464 192.215 160.404 192.004 160.45C191.799 160.521 191.613 160.705 191.445 161.003L189.502 164.464C189.335 164.762 189.279 165.01 189.334 165.206C189.396 165.426 189.576 165.62 189.874 165.788ZM188.231 160.716C188.204 160.618 188.206 160.485 188.238 160.318C188.262 160.166 188.317 160.011 188.406 159.854L190.349 156.393C190.56 156.017 190.801 155.79 191.07 155.715C191.34 155.639 191.663 155.707 192.04 155.918L198.255 159.408C198.742 159.681 199.251 160.06 199.784 160.545C200.324 161.054 200.925 161.712 201.587 162.517L205.772 167.529C205.886 167.656 205.973 167.777 206.032 167.892C206.098 168.033 206.148 168.164 206.182 168.286L206.193 168.323L207.02 172.751C207.059 172.938 207.054 173.131 207.004 173.331C206.97 173.538 206.891 173.752 206.768 173.972L203.212 180.305C203.01 180.666 202.768 180.912 202.488 181.044C202.215 181.2 201.89 181.245 201.514 181.179L195.02 180.227C193.988 180.08 193.118 179.902 192.411 179.69C191.71 179.504 191.117 179.274 190.63 179.001L184.415 175.511C184.211 175.396 184.056 175.268 183.95 175.126C183.835 175 183.761 174.855 183.729 174.692L182.904 170.204C182.877 170.106 182.879 169.973 182.911 169.806C182.935 169.654 182.991 169.499 183.079 169.342L185.075 165.787C185.295 165.395 185.552 165.157 185.846 165.075C186.125 164.983 186.444 165.039 186.805 165.242L189.866 166.96L190.236 166.301L189.742 166.023C189.538 165.909 189.383 165.78 189.277 165.638C189.162 165.512 189.088 165.367 189.056 165.204L188.231 160.716Z" fill="black"/>
<path d="M165.748 186.931L176.383 178.226C176.718 177.953 177.024 177.83 177.303 177.858C177.581 177.886 177.857 178.067 178.131 178.401L189.212 191.94C189.361 192.121 189.465 192.292 189.526 192.451C189.573 192.622 189.582 192.789 189.553 192.953L188.721 197.436C188.697 197.549 188.641 197.665 188.552 197.784C188.461 197.928 188.346 198.058 188.207 198.172L184.968 200.822C184.634 201.096 184.327 201.219 184.049 201.191C183.77 201.163 183.494 200.982 183.22 200.648L176.26 192.144L176.253 192.22L175.421 196.703C175.397 196.816 175.341 196.932 175.252 197.051C175.161 197.195 175.046 197.325 174.907 197.439L171.877 199.918C171.543 200.192 171.236 200.315 170.958 200.287C170.679 200.259 170.403 200.078 170.129 199.744L164.742 193.162C164.594 192.981 164.497 192.805 164.45 192.634C164.389 192.474 164.373 192.313 164.402 192.15L165.271 187.67C165.282 187.569 165.332 187.446 165.423 187.301C165.501 187.168 165.609 187.045 165.748 186.931ZM165.088 191.623C164.823 191.84 164.681 192.049 164.661 192.252C164.638 192.48 164.735 192.726 164.951 192.991L170.338 199.573C170.555 199.837 170.771 199.974 170.988 199.983C171.202 200.017 171.441 199.926 171.706 199.709L174.736 197.23C175 197.013 175.144 196.791 175.167 196.563C175.187 196.36 175.089 196.126 174.872 195.862L172.102 192.477L174.964 190.134L183.429 200.477C183.646 200.741 183.862 200.878 184.079 200.887C184.293 200.921 184.532 200.83 184.797 200.613L188.036 197.963C188.3 197.746 188.444 197.524 188.467 197.296C188.487 197.093 188.389 196.859 188.172 196.595L177.091 183.055C176.874 182.791 176.659 182.641 176.445 182.607C176.228 182.598 175.988 182.702 175.723 182.919L165.088 191.623ZM175.737 186.048L184.971 197.33L184.762 197.501L175.699 186.428L168.428 192.379L171.797 196.495L171.588 196.666L168.048 192.341L175.737 186.048Z" fill="black"/>
<path d="M152.882 199.865L153.139 199.782L157.622 213.655L157.365 213.738L155.157 206.904L149.581 208.706L148.835 216.495L148.553 216.586L149.299 208.797L148.245 209.137C147.201 209.475 146.358 209.53 145.717 209.302C145.075 209.074 144.611 208.515 144.323 207.624L142.862 203.103L143.119 203.02L144.58 207.541C144.846 208.363 145.274 208.868 145.864 209.056C146.454 209.243 147.22 209.185 148.162 208.881L155.074 206.647L152.882 199.865ZM150.285 198.15C149.959 198.255 149.75 198.398 149.657 198.58C149.553 198.784 149.553 199.048 149.659 199.374L151.56 205.257L148.169 206.353C147.895 206.442 147.664 206.431 147.477 206.321C147.29 206.211 147.153 206.019 147.064 205.745L145.445 200.735C145.34 200.41 145.194 200.192 145.007 200.083C144.809 199.995 144.547 200.004 144.221 200.109L140.265 201.388C139.939 201.493 139.73 201.636 139.638 201.818C139.533 202.022 139.534 202.286 139.639 202.612L141.98 209.857C142.312 210.885 142.869 211.613 143.651 212.041C144.421 212.492 145.294 212.588 146.269 212.33L145.583 219.163C145.552 219.476 145.61 219.684 145.757 219.788C145.909 219.909 146.131 219.922 146.422 219.828L150.379 218.549C150.704 218.444 150.948 218.29 151.109 218.087C151.276 217.9 151.369 217.634 151.39 217.286L152.101 210.445L153.129 210.113L155.039 216.022C155.144 216.348 155.296 216.554 155.494 216.641C155.681 216.751 155.937 216.753 156.262 216.648L160.245 215.361C160.57 215.256 160.785 215.102 160.889 214.898C160.982 214.716 160.976 214.463 160.871 214.137L155.491 197.489C155.385 197.164 155.239 196.946 155.053 196.836C154.854 196.749 154.592 196.758 154.267 196.863L150.285 198.15ZM149.454 198.39L151.897 194.536C151.944 194.445 152.036 194.349 152.173 194.248C152.294 194.153 152.44 194.077 152.611 194.022L156.593 192.735C157.004 192.602 157.334 192.599 157.584 192.727C157.833 192.854 158.024 193.124 158.157 193.535L163.537 210.183C163.609 210.406 163.644 210.602 163.642 210.773C163.624 210.949 163.571 211.108 163.484 211.25L161.075 215.121C161.012 215.217 160.917 215.305 160.791 215.383C160.653 215.485 160.499 215.563 160.328 215.618L156.345 216.905C155.934 217.038 155.604 217.041 155.355 216.913C155.106 216.786 154.915 216.516 154.782 216.105L154.026 213.767C153.997 213.852 153.968 213.937 153.938 214.023C153.915 214.125 153.877 214.213 153.825 214.286L151.416 218.158C151.329 218.299 151.208 218.423 151.054 218.53C150.882 218.642 150.685 218.734 150.462 218.806L146.506 220.085C146.077 220.223 145.759 220.203 145.55 220.025C145.346 219.864 145.269 219.567 145.319 219.135L145.959 212.686C144.995 212.865 144.131 212.709 143.367 212.218C142.603 211.727 142.055 210.968 141.723 209.94L139.382 202.695C139.31 202.472 139.283 202.273 139.302 202.096C139.304 201.926 139.348 201.77 139.434 201.628L141.878 197.774C141.924 197.683 142.016 197.587 142.153 197.486C142.274 197.391 142.42 197.315 142.591 197.26L146.548 195.981C146.959 195.848 147.289 195.846 147.538 195.973C147.787 196.101 147.978 196.37 148.111 196.781L149.73 201.791C149.786 201.962 149.864 202.088 149.966 202.169C150.068 202.249 150.181 202.279 150.307 202.257L149.402 199.457C149.33 199.234 149.303 199.035 149.322 198.858C149.323 198.688 149.367 198.532 149.454 198.39Z" fill="black"/>
<path d="M126.19 198.744L131.157 198.81C131.589 198.816 131.903 198.919 132.098 199.119C132.294 199.32 132.389 199.636 132.383 200.068L132.336 203.605C132.333 203.839 132.303 204.037 132.247 204.198C132.173 204.377 132.081 204.511 131.972 204.599L130.389 205.874L130.686 205.878C131.118 205.884 131.431 205.987 131.627 206.188C131.822 206.388 131.926 206.705 131.938 207.137L132.205 217.536C132.22 217.789 132.199 217.995 132.143 218.157C132.069 218.336 131.968 218.478 131.841 218.585L128.319 221.454C128.228 221.525 128.111 221.578 127.966 221.612C127.821 221.664 127.659 221.689 127.479 221.686L122.323 221.618C121.891 221.612 121.586 221.509 121.409 221.309C121.213 221.108 121.127 220.792 121.151 220.36L121.667 209.917C121.688 209.701 121.736 209.513 121.81 209.352C121.866 209.209 121.948 209.084 122.058 208.977L123.668 207.675L122.588 207.661C122.156 207.655 121.843 207.552 121.647 207.352C121.452 207.169 121.357 206.853 121.363 206.403L121.41 202.866C121.413 202.632 121.452 202.435 121.526 202.274C121.582 202.112 121.665 201.978 121.774 201.872L125.322 199.003C125.413 198.932 125.54 198.87 125.703 198.819C125.848 198.767 126.01 198.742 126.19 198.744ZM122.976 208.989C122.634 208.985 122.381 209.054 122.217 209.195C122.053 209.355 121.96 209.606 121.937 209.948L121.421 220.364C121.399 220.706 121.458 220.949 121.6 221.095C121.742 221.259 121.984 221.343 122.326 221.348L127.483 221.416C127.825 221.421 128.069 221.343 128.215 221.183C128.361 221.041 128.427 220.799 128.413 220.456L128.147 210.03C128.133 209.688 128.055 209.435 127.914 209.271C127.753 209.125 127.502 209.049 127.16 209.045L122.976 208.989ZM125.058 218.954L124.788 218.95L124.887 211.445L125.157 211.449L125.058 218.954ZM122.665 201.911C122.323 201.906 122.079 201.975 121.933 202.117C121.769 202.277 121.684 202.528 121.68 202.87L121.633 206.406C121.628 206.748 121.706 206.992 121.866 207.139C122.008 207.302 122.25 207.387 122.592 207.391L127.56 207.457C127.902 207.462 128.155 207.384 128.319 207.224C128.465 207.082 128.54 206.84 128.544 206.498L128.591 202.961C128.596 202.619 128.527 202.366 128.385 202.202C128.225 202.056 127.974 201.981 127.632 201.976L122.665 201.911ZM124.985 204.102L125.255 204.105L125.239 205.266L124.969 205.262L124.985 204.102Z" fill="black"/>
</svg>
